<?xml version="1.0" standalone="no"?>
<!DOCTYPE svg PUBLIC "-//W3C//DTD SVG 20010904//EN"
 "http://www.w3.org/TR/2001/REC-SVG-20010904/DTD/svg10.dtd">
<svg version="1.0" xmlns="http://www.w3.org/2000/svg"
 width="512.000000pt" height="512.000000pt" viewBox="0 0 512.000000 512.000000"
 preserveAspectRatio="xMidYMid meet">

<g transform="translate(0.000000,512.000000) scale(0.100000,-0.100000)"
fill="#000000" stroke="none">
<path d="M3244 4640 c-88 -18 -176 -73 -219 -138 l-26 -39 -167 -6 c-766 -29
-1340 -396 -1656 -1057 -117 -247 -183 -494 -220 -827 -8 -73 -22 -145 -30
-161 -8 -16 -66 -83 -128 -148 -165 -174 -370 -394 -479 -514 -248 -272 -272
-314 -273 -460 -1 -75 3 -93 30 -150 38 -80 97 -138 183 -184 235 -122 477
-37 803 282 l76 75 94 -32 c219 -76 476 -225 766 -447 312 -237 396 -292 511
-331 64 -22 94 -26 186 -27 186 0 357 60 575 202 223 144 496 398 720 669 121
147 112 143 370 143 240 0 300 9 402 61 124 63 238 207 267 339 36 165 57 526
42 720 -32 388 -150 715 -370 1024 -200 282 -553 537 -930 673 -102 37 -104
39 -116 78 -20 67 -51 119 -98 162 -55 51 -105 77 -175 92 -59 12 -79 12 -138
1z m177 -140 c37 -19 99 -82 99 -102 0 -7 -11 -8 -32 -4 -83 18 -254 46 -282
47 -17 0 -39 4 -50 8 -15 6 -12 11 23 34 75 50 165 56 242 17z m-176 -184
c253 -37 461 -99 672 -201 344 -165 588 -379 769 -675 250 -411 324 -855 238
-1445 -25 -175 -98 -280 -242 -348 l-67 -32 -255 -5 c-328 -7 -302 5 -496
-225 -113 -133 -359 -378 -474 -471 -286 -232 -559 -346 -758 -315 -38 6 -88
18 -112 26 -55 19 -229 135 -375 249 -435 340 -739 502 -1086 580 -357 79
-645 50 -797 -79 -46 -40 -54 -75 -25 -107 24 -27 61 -22 101 13 96 84 294
116 526 85 65 -8 121 -18 125 -22 7 -8 -110 -117 -199 -184 -132 -101 -256
-148 -358 -136 -118 14 -229 96 -257 189 -33 112 -12 175 106 312 92 108 353
391 593 645 165 175 182 205 196 350 56 570 238 999 559 1321 294 293 603 433
1091 493 70 9 428 -4 525 -18z"/>
<path d="M1360 2610 c-134 -14 -214 -30 -232 -47 -26 -23 -23 -69 5 -88 21
-13 34 -13 128 2 156 24 438 22 594 -6 345 -61 661 -194 1195 -500 198 -114
525 -282 701 -361 107 -47 141 -48 161 -5 20 45 -1 67 -108 114 -149 65 -493
239 -629 318 -610 354 -925 487 -1308 553 -136 23 -383 33 -507 20z"/>
</g>
</svg>
